<svg xmlns="http://www.w3.org/2000/svg" viewBox="0 0 1000 1000" role="img" aria-label="PMI-RS chapter mark">
  
  <g>
    <rect x="0" y="0" width="500" height="500" fill="none"></rect>
    
    <path d="M 45 45 L 45 455 L 165 455 L 165 310 L 300 310 C 390 310 455 258 455 200 C 455 120 385 45 285 45 Z M 165 155 L 280 155 C 312 155 335 175 335 200 C 335 225 312 245 280 245 L 165 245 Z" fill="#000000"></path>
  </g>
  
  <g transform="translate(500,0)">
    
    <path d="M 45 45 A 205 205 0 0 1 45 455 Z" fill="#F83300"></path>
    
    <path d="M 455 45 A 205 205 0 0 0 455 455 Z" fill="#F83300"></path>
  </g>
  
  <g transform="translate(0,500)">
    <path d="M 0 0 L 500 0 L 500 180 C 500 180 455 165 430 210 C 410 250 440 290 500 290 L 500 500 L 0 500 L 0 310 C 60 310 95 270 75 230 C 55 185 0 200 0 200 Z" fill="#4EF3D7"></path>
  </g>
  
  <g transform="translate(500,500)">
    
    <path d="M 380 60 L 430 90 L 380 210 L 360 195 Z" fill="#1705DC"></path>
    
    <circle cx="395" cy="130" r="22" fill="#1705DC"></circle>
    
    <path d="M 140 180 C 140 150 180 150 180 150 L 380 150 C 380 150 420 150 420 180 L 410 200 C 410 200 370 215 280 215 C 190 215 150 200 150 200 Z" fill="#1705DC"></path>
    
    <path d="M 165 210 C 150 230 150 260 160 285 L 170 330 C 175 360 185 400 215 420 C 245 440 315 440 345 420 C 375 400 385 360 390 330 L 400 285 C 410 260 410 230 395 210 Z" fill="#1705DC"></path>
    
    <path d="M 220 430 L 340 430 L 340 460 C 340 470 330 475 320 475 L 240 475 C 230 475 220 470 220 460 Z" fill="#1705DC"></path>
  </g>
</svg>